<!-- Generated by IcoMoon.io -->
<svg version="1.1" xmlns="http://www.w3.org/2000/svg" width="448" height="448" viewBox="0 0 448 448">
<title></title>
<g id="icomoon-ignore">
</g>
<path fill="#fff" d="M256 343.75v-47.5c0-4.5-3.5-8.25-8-8.25h-48c-4.5 0-8 3.75-8 8.25v47.5c0 4.5 3.5 8.25 8 8.25h48c4.5 0 8-3.75 8-8.25zM255.5 250.25l4.5-114.75c0-1.5-0.75-3.5-2.5-4.75-1.5-1.25-3.75-2.75-6-2.75h-55c-2.25 0-4.5 1.5-6 2.75-1.75 1.25-2.5 3.75-2.5 5.25l4.25 114.25c0 3.25 3.75 5.75 8.5 5.75h46.25c4.5 0 8.25-2.5 8.5-5.75zM252 16.75l192 352c5.5 9.75 5.25 21.75-0.5 31.5s-16.25 15.75-27.5 15.75h-384c-11.25 0-21.75-6-27.5-15.75s-6-21.75-0.5-31.5l192-352c5.5-10.25 16.25-16.75 28-16.75s22.5 6.5 28 16.75z"></path>
</svg>
